<svg width="1440" height="1024" viewBox="0 0 1440 1024" fill="none"
  xmlns="http://www.w3.org/2000/svg">
  <g clip-path="url(#clip0)">
    <rect width="1440" height="1024" fill="white"/>
    <path d="M-192 828C-51.4142 828 233.523 460.202 408 599.504" stroke="#ADBCE3" stroke-width="5" stroke-linecap="round" stroke-linejoin="round"/>
    <circle cx="408" cy="599" r="9" fill="#002FA7"/>
    <path d="M-499 404C-313.895 404 61.272 771.798 291 632.496" stroke="#ADBCE3" stroke-width="5" stroke-linecap="round" stroke-linejoin="round"/>
    <circle r="9" transform="matrix(1 0 0 -1 291 633)" fill="#002FA7"/>
    <path d="M-592 624C-406.895 624 -31.728 991.798 198 852.496" stroke="#ADBCE3" stroke-width="5" stroke-linecap="round" stroke-linejoin="round"/>
    <circle r="9" transform="matrix(1 0 0 -1 198 853)" fill="#002FA7"/>
    <path d="M1867 664C1681.9 664 1306.73 1031.8 1077 892.496" stroke="#ADBCE3" stroke-width="5" stroke-linecap="round" stroke-linejoin="round"/>
    <circle cx="1077" cy="893" r="9" transform="rotate(-180 1077 893)" fill="#002FA7"/>
    <path d="M1609.5 614C1424.4 614 1351 999 1110 964.496" stroke="#ADBCE3" stroke-width="5" stroke-linecap="round" stroke-linejoin="round"/>
    <circle cx="1110" cy="965" r="9" transform="rotate(-180 1110 965)" fill="#002FA7"/>
    <mask id="path-11-inside-1" fill="white">
      <path d="M184.724 867.235C188.191 870.254 192.612 871.951 197.208 872.026C201.804 872.102 206.279 870.551 209.844 867.648C213.408 864.745 215.832 860.677 216.688 856.16C217.544 851.644 216.777 846.971 214.522 842.965C212.268 838.959 208.671 835.878 204.366 834.267C200.061 832.655 195.325 832.616 190.994 834.156C186.663 835.697 183.016 838.718 180.695 842.686C178.375 846.654 177.531 851.314 178.313 855.844L183.599 854.932C183.033 851.648 183.645 848.27 185.327 845.394C187.009 842.517 189.653 840.328 192.792 839.211C195.931 838.094 199.364 838.123 202.485 839.291C205.605 840.459 208.213 842.692 209.847 845.596C211.481 848.5 212.037 851.888 211.417 855.161C210.796 858.435 209.039 861.384 206.456 863.489C203.872 865.593 200.628 866.717 197.296 866.662C193.965 866.607 190.76 865.377 188.247 863.189L184.724 867.235Z"/>
    </mask>
    <path d="M184.724 867.235C188.191 870.254 192.612 871.951 197.208 872.026C201.804 872.102 206.279 870.551 209.844 867.648C213.408 864.745 215.832 860.677 216.688 856.16C217.544 851.644 216.777 846.971 214.522 842.965C212.268 838.959 208.671 835.878 204.366 834.267C200.061 832.655 195.325 832.616 190.994 834.156C186.663 835.697 183.016 838.718 180.695 842.686C178.375 846.654 177.531 851.314 178.313 855.844L183.599 854.932C183.033 851.648 183.645 848.27 185.327 845.394C187.009 842.517 189.653 840.328 192.792 839.211C195.931 838.094 199.364 838.123 202.485 839.291C205.605 840.459 208.213 842.692 209.847 845.596C211.481 848.5 212.037 851.888 211.417 855.161C210.796 858.435 209.039 861.384 206.456 863.489C203.872 865.593 200.628 866.717 197.296 866.662C193.965 866.607 190.76 865.377 188.247 863.189L184.724 867.235Z" stroke="#D6DEF1" stroke-width="8" mask="url(#path-11-inside-1)"/>
    <path d="M214 845.5C388 736 545 662 725.5 662C906 662 1173.5 796 1467.5 796" stroke="#D6DEF1" stroke-width="5" stroke-linecap="round" stroke-linejoin="round"/>
  </g>
  <defs>
    <clipPath id="clip0">
      <rect width="1440" height="1024" fill="white"/>
    </clipPath>
  </defs>
</svg>
